# xmcd CD database file
#
# Track frame offsets:
#	150
#	22740
#	53206
#	79215
#	108504
#	132699
#	152835
#	186300
#
# Disc length: 2884 seconds
#
# Revision: 0
# Processed by: cddbd v1.5.2PL0 Copyright (c) Steve Scherf et al.
# Submitted via: CDex 1.51
#
DISCID=680b4208
DTITLE=Fro Trio (Gerry Lopez Trio) - Fro Trio
DYEAR=2016
DGENRE=Jazz
TTITLE0=Zoom In
TTITLE1=Let's Cool One
TTITLE2=Little Martin
TTITLE3=Vert
TTITLE4=Home Blues
TTITLE5=Paris
TTITLE6=Pont St Louis
TTITLE7=Subconsciouss Lee
EXTD=YEAR: 2016
EXTT0=
EXTT1=
EXTT2=
EXTT3=
EXTT4=
EXTT5=
EXTT6=
EXTT7=
PLAYORDER=
